<?xml version="1.0" encoding="UTF-8" standalone="no"?>
<!-- Created with Inkscape (http://www.inkscape.org/) -->

<svg
   viewBox="0 0 123.82315 87.039154"
   version="1.1"
   id="svg5"
   inkscape:version="1.2.1 (9c6d41e410, 2022-07-14)"
   sodipodi:docname="event-horizon-log.svg"
   xmlns:inkscape="http://www.inkscape.org/namespaces/inkscape"
   xmlns:sodipodi="http://sodipodi.sourceforge.net/DTD/sodipodi-0.dtd"
   xmlns="http://www.w3.org/2000/svg"
   xmlns:svg="http://www.w3.org/2000/svg">
  <sodipodi:namedview
     id="namedview7"
     pagecolor="#505050"
     bordercolor="#ffffff"
     borderopacity="1"
     inkscape:showpageshadow="0"
     inkscape:pageopacity="0"
     inkscape:pagecheckerboard="1"
     inkscape:deskcolor="#505050"
     inkscape:document-units="mm"
     showgrid="false"
     showguides="true"
     inkscape:zoom="0.39063903"
     inkscape:cx="0"
     inkscape:cy="1658.8204"
     inkscape:window-width="1858"
     inkscape:window-height="1057"
     inkscape:window-x="54"
     inkscape:window-y="-8"
     inkscape:window-maximized="1"
     inkscape:current-layer="layer1" />
  <defs
     id="defs2" />
  <g
     inkscape:label="Layer 1"
     inkscape:groupmode="layer"
     id="layer1"
     transform="translate(-343.26176,-382.48439)">
    <g
       id="g15438"
       transform="rotate(-15,1339.6191,-793.33022)"
       inkscape:export-filename="event-horizon-logo-min.svg"
       inkscape:export-xdpi="50"
       inkscape:export-ydpi="50">
      <path
      shape-rendering="geometricPrecision"
         style="display:inline;fill:none;fill-opacity:0.599589;stroke-width:5;stroke-linecap:round;stroke-linejoin:round;stroke-dasharray:none;stroke-opacity:1;paint-order:fill markers stroke"
         d="M 60.943848,138.65 H 184.0288 c -20.90005,0 -27.27701,-36.70605 -61.54248,-36.70605 -34.346867,0 -40.220875,36.70605 -61.542472,36.70605 z"
         id="path15430"
         sodipodi:nodetypes="ccsc" />
      <path
      shape-rendering="geometricPrecision"
         id="path15432"
         style="display:inline;fill:none;fill-opacity:0.599589;stroke-width:5;stroke-linecap:round;stroke-linejoin:round;stroke-dasharray:none;paint-order:fill markers stroke"
         d="m 94.696544,138.64993 c -0.212326,1.39287 -0.322978,2.81886 -0.322977,4.27106 0,3.88153 0.786596,7.57968 2.209167,10.943 1.422573,3.36334 3.481266,6.3922 6.024956,8.93589 2.54369,2.54368 5.57255,4.60187 8.93589,6.02444 3.36333,1.42258 7.06096,2.20917 10.94248,2.20917 3.88154,0 7.57967,-0.78659 10.943,-2.20917 3.36334,-1.42257 6.39222,-3.48075 8.93589,-6.02444 2.54369,-2.54369 4.60187,-5.57254 6.02444,-8.93589 1.42258,-3.36332 2.20969,-7.06147 2.20969,-10.943 0,-1.4522 -0.11065,-2.87819 -0.32298,-4.27106 z" />
      <path
      shape-rendering="geometricPrecision"
         id="path15434"
         style="display:inline;fill:none;fill-opacity:0.599589;stroke-width:5;stroke-linecap:round;stroke-linejoin:round;stroke-dasharray:none;paint-order:fill markers stroke"
         d="m 122.48606,114.8085 c -3.88152,0 -7.57915,0.78659 -10.94248,2.20916 -3.36335,1.42257 -6.39221,3.48127 -8.93589,6.02496 -1.44438,1.44438 -2.731523,3.04575 -3.835424,4.77542 h 47.428114 c -1.1039,-1.72967 -2.39104,-3.33104 -3.83543,-4.77542 -2.54368,-2.54369 -5.57255,-4.60239 -8.93589,-6.02496 -3.36333,-1.42258 -7.06146,-2.20916 -10.943,-2.20916 z" />
      <path
      shape-rendering="geometricPrecision"
         id="path15436"
         style="fill:none;fill-opacity:0.599589;stroke-width:5;stroke-linecap:round;stroke-linejoin:round;stroke-dasharray:none;paint-order:fill markers stroke"
         d="m 81.730929,138.64993 c -0.145449,1.40413 -0.221693,2.82847 -0.221692,4.27106 10e-7,5.65777 1.1464,11.04801 3.219958,15.95045 2.073557,4.90243 5.07419,9.31734 8.781893,13.02504 3.707702,3.7077 8.122612,6.70834 13.025042,8.7819 4.90244,2.07356 10.29217,3.21996 15.94993,3.21996 5.65777,0 11.04802,-1.1464 15.95045,-3.21996 4.90245,-2.07356 9.31735,-5.07419 13.02505,-8.7819 3.7077,-3.7077 6.70833,-8.1226 8.78189,-13.02504 2.07356,-4.90244 3.21996,-10.29268 3.21996,-15.95045 0,-1.44259 -0.0763,-2.86693 -0.22169,-4.27106 z"
         sodipodi:nodetypes="cssssssssscc" />
    </g>
  </g>
</svg>
